<svg 
 xmlns="http://www.w3.org/2000/svg"
 xmlns:xlink="http://www.w3.org/1999/xlink"
 width="47px" height="43px">
<path fill-rule="evenodd"  fill="rgb(255, 255, 255)"
 d="M44.833,11.249 C44.177,11.897 40.748,14.625 40.241,15.028 L35.482,19.720 L42.774,19.720 L42.774,29.472 C42.767,34.149 39.132,38.042 34.407,38.436 L34.407,42.974 L13.108,42.974 L13.108,38.436 C8.382,38.042 4.748,34.149 4.741,29.472 L4.741,19.720 L6.679,19.720 C3.132,17.718 0.942,13.998 0.937,9.968 L0.937,3.967 C0.937,3.553 1.278,3.217 1.698,3.217 C6.049,3.223 10.019,5.669 11.931,9.523 C13.191,4.505 17.754,0.976 22.997,0.967 L24.518,0.967 C24.938,0.967 25.279,1.303 25.279,1.716 L25.279,9.968 C25.274,13.998 23.084,17.718 19.537,19.720 L22.682,19.720 L33.837,8.719 C34.236,8.231 37.014,4.836 37.672,4.187 C37.752,4.102 37.836,4.020 37.922,3.941 C39.899,2.127 42.994,2.237 44.833,4.187 C44.915,4.262 44.995,4.341 45.071,4.422 C46.917,6.372 46.811,9.429 44.833,11.249 ZM14.629,41.474 L16.151,41.474 L16.151,39.975 L17.672,39.975 L17.672,41.474 L19.193,41.474 L19.193,39.975 L20.715,39.975 L20.715,41.474 L32.885,41.474 L32.885,38.473 L14.629,38.473 L14.629,41.474 ZM11.587,19.406 C8.437,17.419 6.045,14.454 4.789,10.981 L6.214,10.455 C7.265,13.300 9.132,15.781 11.587,17.599 L11.587,14.469 C11.581,9.377 7.607,5.144 2.459,4.746 L2.459,9.968 C2.465,15.061 6.438,19.294 11.587,19.692 L11.587,19.406 ZM23.757,9.968 L23.757,2.467 L22.997,2.467 C17.538,2.473 13.114,6.836 13.108,12.219 L13.108,17.442 C15.030,15.854 18.675,12.278 19.198,7.635 L20.710,7.801 C20.008,14.033 14.534,18.334 13.108,19.358 L13.108,19.720 L13.869,19.720 C19.327,19.714 23.751,15.351 23.757,9.968 ZM6.262,21.221 L6.262,29.472 C6.267,33.613 9.669,36.969 13.869,36.974 L33.646,36.974 C37.845,36.969 41.248,33.613 41.253,29.472 L41.253,21.221 L6.262,21.221 ZM24.833,19.720 L31.810,19.720 L28.321,16.280 L24.833,19.720 ZM29.397,15.220 L33.646,19.409 L36.374,16.719 L32.125,12.529 L29.397,15.220 ZM33.200,11.469 L37.449,15.658 L38.656,14.469 L34.407,10.279 L33.200,11.469 ZM43.758,5.248 C43.700,5.186 43.639,5.127 43.577,5.069 C42.193,3.804 40.031,3.883 38.748,5.248 C38.301,5.688 36.476,7.889 35.428,9.165 L39.785,13.461 C41.079,12.428 43.311,10.629 43.758,10.188 C43.834,10.119 43.908,10.046 43.978,9.971 C45.240,8.607 45.141,6.492 43.758,5.248 ZM40.715,7.187 L42.236,5.687 L43.312,6.749 L41.791,8.248 L40.715,7.187 ZM39.509,10.499 L38.433,9.437 L39.954,7.938 L41.030,8.999 L39.509,10.499 ZM29.843,22.721 L39.731,22.721 L39.731,24.221 L29.843,24.221 L29.843,22.721 ZM26.800,22.721 L28.321,22.721 L28.321,24.221 L26.800,24.221 L26.800,22.721 ZM10.065,33.361 C7.403,30.514 7.766,25.857 7.783,25.659 L9.305,25.783 C9.299,25.825 8.984,29.993 11.190,32.350 C12.286,33.464 13.818,34.055 15.390,33.973 L15.390,35.473 C13.388,35.564 11.446,34.792 10.065,33.361 Z"/>
</svg>