<svg 
 xmlns="http://www.w3.org/2000/svg"
 xmlns:xlink="http://www.w3.org/1999/xlink"
 width="923px" height="949px">
<path fill-rule="evenodd"  fill="rgb(255, 240, 234)"
 d="M171.807,0.196 C148.760,105.722 105.849,202.202 55.483,293.948 C55.493,293.948 33.270,331.915 16.845,390.702 C12.756,405.409 9.054,421.434 6.195,438.537 C4.765,447.089 3.545,455.910 2.588,464.971 C2.110,469.501 1.697,474.091 1.356,478.737 C1.185,481.060 1.032,483.397 0.898,485.747 C0.832,486.923 0.769,488.101 0.712,489.283 C0.654,490.466 0.602,491.650 0.554,492.839 C-0.994,530.866 2.521,572.254 13.566,614.847 C14.191,614.974 40.985,742.365 153.761,842.345 C153.819,842.325 184.725,872.103 241.907,900.393 C270.507,914.517 305.756,928.233 346.862,937.371 C367.409,941.938 389.410,945.358 412.721,947.108 C424.376,947.985 436.358,948.444 448.648,948.424 C450.184,948.421 451.725,948.411 453.271,948.393 C454.816,948.376 456.367,948.351 457.922,948.318 C461.033,948.252 464.162,948.155 467.310,948.026 C473.606,947.769 479.976,947.384 486.418,946.864 C486.332,946.906 566.582,943.585 645.529,909.339 C645.472,909.347 730.521,874.342 799.181,818.850 C799.197,818.851 837.703,786.693 867.058,748.142 C886.910,518.422 904.743,288.625 923.004,59.125 C660.704,39.676 457.860,26.609 171.807,0.196 L171.807,0.196 Z"/>
</svg>