<svg 
 xmlns="http://www.w3.org/2000/svg"
 xmlns:xlink="http://www.w3.org/1999/xlink"
 width="50px" height="41px">
<path fill-rule="evenodd"  fill="rgb(255, 129, 126)"
 d="M48.742,18.366 C48.739,18.384 48.738,18.402 48.731,18.420 C40.488,39.793 21.070,40.995 21.070,40.995 C39.473,37.543 45.355,22.916 46.219,20.465 C45.427,20.624 44.577,20.508 43.823,20.070 C42.168,19.108 41.598,16.975 42.550,15.304 C43.503,13.632 45.616,13.058 47.271,14.019 C48.790,14.902 49.391,16.773 48.742,18.366 ZM24.463,37.984 C32.667,26.268 30.763,17.051 30.763,17.051 C29.974,30.041 22.057,37.700 22.057,37.700 C15.676,38.914 9.333,35.202 9.333,35.202 C14.987,40.096 21.411,39.057 21.411,39.057 C4.473,46.642 -0.001,28.993 -0.001,28.993 C4.486,31.137 9.667,29.217 9.667,29.217 C14.324,28.166 18.496,31.187 18.496,31.187 C13.325,20.434 22.516,12.834 22.516,12.834 C29.861,7.248 31.141,-0.001 31.141,-0.001 C50.517,24.470 24.463,37.984 24.463,37.984 Z"/>
</svg>