<svg xmlns="http://www.w3.org/2000/svg" width="47" height="43"><path fill-rule="evenodd" fill="#FFF" d="M44.833 11.249c-.656.648-4.085 3.376-4.592 3.779l-4.759 4.692h7.292v9.752c-.007 4.677-3.642 8.57-8.367 8.964v4.538H13.108v-4.538c-4.726-.394-8.36-4.287-8.367-8.964V19.72h1.938C3.132 17.718.942 13.998.937 9.968V3.967c0-.414.341-.75.761-.75 4.351.006 8.321 2.452 10.233 6.306C13.191 4.505 17.754.976 22.997.967h1.521c.42 0 .761.336.761.749v8.252c-.005 4.03-2.195 7.75-5.742 9.752h3.145L33.837 8.719c.399-.488 3.177-3.883 3.835-4.532.08-.085.164-.167.25-.246 1.977-1.814 5.072-1.704 6.911.246a4.783 4.783 0 010 7.062zM14.629 41.474h1.522v-1.499h1.521v1.499h1.521v-1.499h1.522v1.499h12.17v-3.001H14.629v3.001zm-3.042-22.068a16.68 16.68 0 01-6.798-8.425l1.425-.526a15.64 15.64 0 005.373 7.144v-3.13c-.006-5.092-3.98-9.325-9.128-9.723v5.222c.006 5.093 3.979 9.326 9.128 9.724v-.286zm12.17-9.438V2.467h-.76c-5.459.006-9.883 4.369-9.889 9.752v5.223c1.922-1.588 5.567-5.164 6.09-9.807l1.512.166c-.702 6.232-6.176 10.533-7.602 11.557v.362h.761c5.458-.006 9.882-4.369 9.888-9.752zM6.262 21.221v8.251c.005 4.141 3.407 7.497 7.607 7.502h19.777c4.199-.005 7.602-3.361 7.607-7.502v-8.251H6.262zm18.571-1.501h6.977l-3.489-3.44-3.488 3.44zm4.564-4.5l4.249 4.189 2.728-2.69-4.249-4.19-2.728 2.691zm3.803-3.751l4.249 4.189 1.207-1.189-4.249-4.19-1.207 1.19zm10.558-6.221a3.45 3.45 0 00-5.01 0c-.447.44-2.272 2.641-3.32 3.917l4.357 4.296c1.294-1.033 3.526-2.832 3.973-3.273a3.31 3.31 0 000-4.94zm-3.043 1.939l1.521-1.5 1.076 1.062-1.521 1.499-1.076-1.061zm-1.206 3.312l-1.076-1.062 1.521-1.499 1.076 1.061-1.521 1.5zm-9.666 12.222h9.888v1.5h-9.888v-1.5zm-3.043 0h1.521v1.5H26.8v-1.5zm-16.735 10.64c-2.662-2.847-2.299-7.504-2.282-7.702l1.522.124c-.006.042-.321 4.21 1.885 6.567a5.492 5.492 0 004.2 1.623v1.5a6.963 6.963 0 01-5.325-2.112z"/></svg>