<svg xmlns="http://www.w3.org/2000/svg" width="923" height="949"><path fill-rule="evenodd" fill="#FFF0EA" d="M171.807.196C148.76 105.722 105.849 202.202 55.483 293.948c.01 0-22.213 37.967-38.638 96.754-4.089 14.707-7.791 30.732-10.65 47.835a441.46 441.46 0 00-3.607 26.434 433.773 433.773 0 00-1.876 24.312c-.058 1.183-.11 2.367-.158 3.556-1.548 38.027 1.967 79.415 13.012 122.008.625.127 27.419 127.518 140.195 227.498.058-.02 30.964 29.758 88.146 58.048a465.458 465.458 0 00104.955 36.978 463.28 463.28 0 0065.859 9.737 468.57 468.57 0 0045.201 1.21 481.613 481.613 0 0028.496-1.454c-.086.042 80.164-3.279 159.111-37.525-.057.008 84.992-34.997 153.652-90.489.016.001 38.522-32.157 67.877-70.708 19.852-229.72 37.685-459.517 55.946-689.017C660.704 39.676 457.86 26.609 171.807.196z"/></svg>