<svg xmlns="http://www.w3.org/2000/svg" width="50" height="41"><path fill-rule="evenodd" fill="#FF817E" d="M48.742 18.366c-.003.018-.004.036-.011.054C40.488 39.793 21.07 40.995 21.07 40.995c18.403-3.452 24.285-18.079 25.149-20.53a3.413 3.413 0 01-2.396-.395c-1.655-.962-2.225-3.095-1.273-4.766a3.44 3.44 0 014.721-1.285c1.519.883 2.12 2.754 1.471 4.347zM24.463 37.984c8.204-11.716 6.3-20.933 6.3-20.933-.789 12.99-8.706 20.649-8.706 20.649-6.381 1.214-12.724-2.498-12.724-2.498 5.654 4.894 12.078 3.855 12.078 3.855C4.473 46.642-.001 28.993-.001 28.993c4.487 2.144 9.668.224 9.668.224 4.657-1.051 8.829 1.97 8.829 1.97-5.171-10.753 4.02-18.353 4.02-18.353C29.861 7.248 31.141-.001 31.141-.001c19.376 24.471-6.678 37.985-6.678 37.985z"/></svg>