<?xml version="1.0" standalone="no"?>
<!DOCTYPE svg PUBLIC "-//W3C//DTD SVG 20010904//EN"
 "http://www.w3.org/TR/2001/REC-SVG-20010904/DTD/svg10.dtd">
<svg version="1.0" xmlns="http://www.w3.org/2000/svg"
 width="737.000000pt" height="737.000000pt" viewBox="0 0 737.000000 737.000000"
 preserveAspectRatio="xMidYMid meet">
<metadata>
Created by potrace 1.11, written by Peter Selinger 2001-2013
</metadata>
<g transform="translate(0.000000,737.000000) scale(0.100000,-0.100000)"
fill="#000000" stroke="none">
<path d="M4670 6707 c-25 -107 -84 -278 -148 -432 -41 -98 -152 -311 -223
-428 -74 -121 -216 -323 -277 -394 -15 -17 -52 -61 -82 -97 -110 -130 -342
-351 -515 -488 -321 -255 -628 -702 -768 -1118 -30 -88 -64 -212 -70 -255 -3
-16 -8 -41 -11 -55 -34 -150 -41 -500 -12 -660 3 -14 7 -41 10 -61 10 -65 45
-205 77 -305 33 -104 35 -110 91 -241 l36 -81 -52 32 c-61 40 -207 114 -291
149 -238 99 -467 146 -699 142 -66 -1 -134 -5 -151 -8 -16 -3 -52 -9 -79 -12
-27 -3 -56 -10 -65 -14 -38 -20 -233 -64 -416 -96 -44 -7 -230 -19 -305 -19
-202 1 -467 45 -594 99 -94 40 -112 48 -118 52 -32 18 129 -396 223 -572 456
-858 1138 -1276 1974 -1210 222 17 503 78 710 155 124 46 242 93 265 106 l25
14 -30 -5 c-36 -6 -340 -7 -375 -1 -14 3 -52 7 -85 10 -317 30 -723 171 -1010
351 -90 57 -278 195 -273 200 2 2 54 -21 116 -51 269 -130 622 -247 872 -289
19 -3 49 -8 65 -11 37 -7 75 -12 140 -19 28 -3 66 -8 85 -10 49 -6 346 -6 400
0 25 3 61 8 80 10 128 16 123 14 170 64 86 93 177 202 250 302 30 41 57 76 60
79 6 6 76 108 114 165 14 22 29 45 34 50 4 6 45 73 92 150 105 176 238 438
314 620 32 77 62 149 67 160 60 142 189 562 215 699 2 12 6 30 8 41 26 120 37
173 46 231 6 38 13 80 15 94 4 24 22 157 30 222 2 18 7 76 11 128 8 106 16 91
28 -51 6 -77 8 -371 2 -444 -7 -85 -17 -191 -21 -215 -2 -14 -7 -45 -10 -70
-3 -25 -8 -56 -10 -70 -2 -14 -7 -45 -11 -70 -3 -24 -7 -47 -9 -50 -2 -3 -6
-25 -10 -50 -4 -25 -8 -47 -10 -51 -2 -3 -7 -21 -10 -40 -10 -58 -53 -219 -85
-324 -18 -55 -33 -104 -34 -110 -2 -5 -5 -17 -9 -25 -3 -8 -22 -62 -42 -120
-38 -107 -88 -231 -132 -330 -27 -60 -178 -366 -193 -390 -5 -8 -34 -60 -65
-115 -87 -154 -150 -256 -251 -405 -71 -105 -71 -107 -37 -82 17 12 33 22 36
22 8 0 159 94 260 162 95 64 345 251 387 290 14 13 55 48 90 78 73 61 76 64
186 171 277 268 498 544 672 839 58 99 167 318 201 405 13 33 29 74 36 90 43
101 121 393 145 545 6 41 13 86 16 100 24 154 24 588 0 716 -2 11 -7 48 -11
84 -4 36 -8 67 -10 70 -2 3 -6 23 -9 45 -4 22 -19 94 -35 160 -115 478 -320
928 -647 1422 -98 149 -249 359 -320 445 l-22 27 -12 -52z"/>
<path d="M6735 4719 c-22 -5 -49 -13 -60 -18 -11 -5 -42 -19 -68 -31 -127 -58
-253 -232 -272 -372 -17 -130 -3 -222 51 -329 90 -180 290 -294 492 -282 34 2
62 0 62 -5 0 -5 -15 -47 -34 -93 -200 -494 -506 -979 -885 -1404 -48 -53 -304
-310 -361 -361 -460 -413 -996 -735 -1595 -957 -227 -84 -541 -175 -730 -212
-16 -3 -46 -10 -65 -15 -32 -8 -30 -9 15 -5 28 3 61 7 75 10 13 2 42 7 65 11
105 15 363 75 480 111 557 171 1008 382 1435 672 437 296 861 693 1156 1081
27 36 51 67 54 70 14 13 136 187 212 305 149 228 332 564 428 785 17 41 36 83
41 92 29 57 112 280 123 332 66 319 -181 624 -505 623 -41 0 -92 -4 -114 -8z"/>
</g>
</svg>
